<svg width="76" height="76" viewBox="0 0 76 76" fill="none" xmlns="http://www.w3.org/2000/svg">
<path d="M64.125 4.75H11.875C7.94141 4.75 4.75 7.94141 4.75 11.875V64.125C4.75 68.0586 7.94141 71.25 11.875 71.25H64.125C68.0586 71.25 71.25 68.0586 71.25 64.125V11.875C71.25 7.94141 68.0586 4.75 64.125 4.75ZM45.9117 61.7055C44.6648 61.9281 44.2047 61.1562 44.2047 60.518C44.2047 59.7164 44.2344 55.6195 44.2344 52.3094C44.2344 49.9937 43.4625 48.5242 42.557 47.7523C48.0492 47.1438 53.8383 46.3867 53.8383 36.9016C53.8383 34.2 52.8734 32.8492 51.3 31.1125C51.5523 30.4742 52.3984 27.8469 51.0477 24.4328C48.9844 23.7945 44.2641 27.0898 44.2641 27.0898C42.3047 26.5406 40.182 26.2586 38.0891 26.2586C35.9961 26.2586 33.8734 26.5406 31.9141 27.0898C31.9141 27.0898 27.1938 23.7945 25.1305 24.4328C23.7797 27.832 24.6109 30.4594 24.8781 31.1125C23.3047 32.8492 22.5625 34.2 22.5625 36.9016C22.5625 46.3422 28.0992 47.1438 33.5914 47.7523C32.8789 48.3906 32.2406 49.4891 32.018 51.0625C30.6078 51.7008 27.0008 52.7992 24.8484 48.9992C23.4977 46.6539 21.0633 46.4609 21.0633 46.4609C18.6586 46.4313 20.9 47.975 20.9 47.975C22.5031 48.7172 23.6313 51.5672 23.6313 51.5672C25.0711 55.9758 31.9586 54.4914 31.9586 54.4914C31.9586 56.5547 31.9883 59.9094 31.9883 60.518C31.9883 61.1562 31.543 61.9281 30.2812 61.7055C20.4844 58.425 13.6266 49.1031 13.6266 38.2078C13.6266 24.5812 24.0469 14.2352 37.6734 14.2352C51.3 14.2352 62.3438 24.5812 62.3438 38.2078C62.3586 49.1031 55.7086 58.4398 45.9117 61.7055ZM31.35 52.6359C31.068 52.6953 30.8008 52.5766 30.7711 52.3836C30.7414 52.1609 30.9344 51.968 31.2164 51.9086C31.4984 51.8789 31.7656 51.9977 31.7953 52.1906C31.8398 52.3836 31.6469 52.5766 31.35 52.6359ZM29.9398 52.5023C29.9398 52.6953 29.7172 52.8586 29.4203 52.8586C29.0938 52.8883 28.8711 52.725 28.8711 52.5023C28.8711 52.3094 29.0938 52.1461 29.3906 52.1461C29.6727 52.1164 29.9398 52.2797 29.9398 52.5023ZM27.9062 52.3391C27.8469 52.532 27.55 52.6211 27.2977 52.532C27.0156 52.4727 26.8227 52.25 26.882 52.057C26.9414 51.8641 27.2383 51.775 27.4906 51.8344C27.7875 51.9234 27.9805 52.1461 27.9062 52.3391ZM26.0805 51.5375C25.9469 51.7008 25.6648 51.6711 25.4422 51.4484C25.2195 51.2555 25.1602 50.9734 25.3086 50.8398C25.4422 50.6766 25.7242 50.7062 25.9469 50.9289C26.1398 51.1219 26.2141 51.4188 26.0805 51.5375ZM24.7297 50.1867C24.5961 50.2758 24.3438 50.1867 24.1805 49.9641C24.0172 49.7414 24.0172 49.4891 24.1805 49.3852C24.3438 49.2516 24.5961 49.3555 24.7297 49.5781C24.893 49.8008 24.893 50.068 24.7297 50.1867ZM23.7648 48.7469C23.6313 48.8805 23.4086 48.8062 23.2453 48.6578C23.082 48.4648 23.0523 48.2422 23.1859 48.1383C23.3195 48.0047 23.5422 48.0789 23.7055 48.2273C23.8687 48.4203 23.8984 48.643 23.7648 48.7469ZM22.7703 47.6484C22.7109 47.782 22.518 47.8117 22.3547 47.7078C22.1617 47.6187 22.0727 47.4555 22.132 47.3219C22.1914 47.2328 22.3547 47.1883 22.5477 47.2625C22.7406 47.3664 22.8297 47.5297 22.7703 47.6484Z" fill="#61CBDF"/>
</svg>
