<svg width="500" height="148" viewBox="0 0 500 148" fill="none" xmlns="http://www.w3.org/2000/svg">
<path d="M0 35.8624C0 18.466 17.2255 6.71838 33.887 11.7212C41.1099 13.89 48.3328 15.7426 55.5559 17.0769C74.0743 20.4979 92.5927 20.5114 111.111 20.8713C129.629 21.2311 148.148 21.9365 166.667 22.7692C185.185 23.6012 203.704 24.5605 222.222 28.4615C240.74 32.3618 259.26 39.2029 277.778 36.051C296.296 32.8991 314.815 19.7527 333.333 13.2818C351.852 6.81087 370.371 7.01467 388.889 5.69231C407.407 4.36914 425.926 1.51901 444.444 1.89717C456.213 2.13749 467.981 3.68122 479.75 5.70005C491.542 7.72307 500 18.1235 500 30.0884V123C500 136.807 488.807 148 475 148C464.815 148 454.63 148 444.444 148C425.926 148 407.407 148 388.889 148C370.371 148 351.852 148 333.333 148C314.815 148 296.296 148 277.778 148C259.26 148 240.74 148 222.222 148C203.704 148 185.185 148 166.667 148C148.148 148 129.629 148 111.111 148C92.5927 148 74.0743 148 55.5559 148C45.3704 148 35.1852 148 25 148C11.1929 148 0 136.807 0 123V35.8624Z" fill="#5E8F56"/>
<path d="M0 66.3492C0 55.1607 7.44382 45.369 18.1879 42.247C30.6437 38.6275 43.0996 34.8043 55.5559 30.3587C74.0743 23.7492 92.5927 15.7641 111.111 22.7692C129.629 29.7743 148.148 51.7689 166.667 53.1279C185.185 54.4869 203.704 35.2087 222.222 37.9481C240.74 40.6884 259.26 65.4455 277.778 60.7174C296.296 55.9892 314.815 21.7756 333.333 13.2817C351.852 4.78785 370.371 22.0144 388.889 26.5635C407.407 31.1126 425.926 22.9841 444.444 20.8712C456.331 19.515 468.217 20.6371 480.103 22.6466C491.757 24.6171 500 35.0238 500 46.8441V123C500 136.807 488.807 148 475 148C464.815 148 454.63 148 444.444 148C425.926 148 407.407 148 388.889 148C370.371 148 351.852 148 333.333 148C314.815 148 296.296 148 277.778 148C259.26 148 240.74 148 222.222 148C203.704 148 185.185 148 166.667 148C148.148 148 129.629 148 111.111 148C92.5927 148 74.0743 148 55.5559 148C45.3704 148 35.1852 148 25 148C11.1929 148 0 136.807 0 123V66.3492Z" fill="#C7E3B6"/>
<path d="M0 86.571C0 78.6621 3.71467 71.1809 10.1227 66.5455C25.2669 55.5906 40.4111 45.9655 55.5559 43.6405C74.0743 40.7975 92.5927 48.8695 111.111 53.128C129.629 57.3864 148.148 57.8307 166.667 60.7174C185.185 63.605 203.704 68.9351 222.222 74C240.74 79.0642 259.26 83.864 277.778 79.6923C296.296 75.5206 314.815 62.3774 333.333 62.6154C351.852 62.8534 370.371 76.472 388.889 79.6923C407.407 82.9119 425.926 75.7332 444.444 70.2049C452.94 67.6686 461.436 65.4798 469.933 63.4793C485.378 59.8424 500 71.8305 500 87.698V123C500 136.807 488.807 148 475 148C464.815 148 454.63 148 444.444 148C425.926 148 407.407 148 388.889 148C370.371 148 351.852 148 333.333 148C314.815 148 296.296 148 277.778 148C259.26 148 240.74 148 222.222 148C203.704 148 185.185 148 166.667 148C148.148 148 129.629 148 111.111 148C92.5927 148 74.0743 148 55.5559 148C45.3704 148 35.1852 148 25 148C11.1929 148 0 136.807 0 123V86.571Z" fill="#ECF0E8"/>
</svg>
