<svg width="500" height="161" viewBox="0 0 500 161" fill="none" xmlns="http://www.w3.org/2000/svg">
<path d="M0 50.2141C0 43.752 2.48588 37.5248 6.99971 32.9005C23.1848 16.3194 39.3701 1.44405 55.5559 0.102455C74.0743 -1.43254 92.5927 14.7495 111.111 17.2625C129.629 19.7745 148.148 8.61745 166.667 11.5425C185.185 14.4675 203.704 31.4745 222.222 40.1425C240.74 48.8095 259.26 49.1385 277.778 38.2355C296.296 27.3325 314.815 5.19945 333.333 3.91545C351.852 2.63145 370.371 22.1965 388.889 30.6085C407.407 39.0215 425.926 36.2805 444.444 30.6085C451.021 28.594 457.599 26.2096 464.176 23.5868C481.148 16.8186 500 28.6383 500 46.9106V135.262C500 149.07 488.807 160.262 475 160.262C464.815 160.262 454.63 160.262 444.444 160.262C425.926 160.262 407.407 160.262 388.889 160.262C370.371 160.262 351.852 160.262 333.333 160.262C314.815 160.262 296.296 160.262 277.778 160.262C259.26 160.262 240.74 160.262 222.222 160.262C203.704 160.262 185.185 160.262 166.667 160.262C148.148 160.262 129.629 160.262 111.111 160.262C92.5927 160.262 74.0743 160.262 55.5559 160.262C45.3704 160.262 35.1852 160.262 25 160.262C11.1929 160.262 0 149.07 0 135.262V50.2141Z" fill="black"/>
<path d="M0 95.8626C0 79.9435 14.6225 68.4567 30.3764 70.7451C38.7694 71.9642 47.1626 72.701 55.5559 72.5555C74.0743 72.2345 92.5927 67.6205 111.111 57.3025C129.629 46.9845 148.148 30.9625 166.667 34.4225C185.185 37.8815 203.704 60.8215 222.222 63.0225C240.74 65.2225 259.26 46.6835 277.778 45.8625C296.296 45.0405 314.815 61.9375 333.333 66.8355C351.852 71.7335 370.371 64.6345 388.889 63.0225C407.407 61.4105 425.926 65.2855 444.444 64.9285C452.572 64.7722 460.7 63.8006 468.828 62.3715C484.825 59.5587 500 71.1027 500 87.3452V135.262C500 149.07 488.807 160.262 475 160.262C464.815 160.262 454.63 160.262 444.444 160.262C425.926 160.262 407.407 160.262 388.889 160.262C370.371 160.262 351.852 160.262 333.333 160.262C314.815 160.262 296.296 160.262 277.778 160.262C259.26 160.262 240.74 160.262 222.222 160.262C203.704 160.262 185.185 160.262 166.667 160.262C148.148 160.262 129.629 160.262 111.111 160.262C92.5927 160.262 74.0743 160.262 55.5559 160.262C45.3704 160.262 35.1852 160.262 25 160.262C11.1929 160.262 0 149.07 0 135.262V95.8626Z" fill="#5CD8E5"/>
<path d="M0 111.886C0 93.5763 18.7555 82.4959 36.4666 87.1378C42.8296 88.8056 49.1927 89.7849 55.5559 89.7155C74.0743 89.5135 92.5927 80.4285 111.111 80.1825C129.629 79.9355 148.148 88.5275 166.667 85.9025C185.185 83.2765 203.704 69.4325 222.222 68.7425C240.74 68.0515 259.26 80.5135 277.778 83.9955C296.296 87.4775 314.815 81.9805 333.333 80.1825C351.852 78.3835 370.371 80.2845 388.889 82.0885C407.407 83.8925 425.926 85.6005 444.444 85.9025C454.131 86.0599 463.817 85.833 473.504 85.4227C487.883 84.8136 500 96.1382 500 110.53V135.262C500 149.07 488.807 160.262 475 160.262C464.815 160.262 454.63 160.262 444.444 160.262C425.926 160.262 407.407 160.262 388.889 160.262C370.371 160.262 351.852 160.262 333.333 160.262C314.815 160.262 296.296 160.262 277.778 160.262C259.26 160.262 240.74 160.262 222.222 160.262C203.704 160.262 185.185 160.262 166.667 160.262C148.148 160.262 129.629 160.262 111.111 160.262C92.5927 160.262 74.0743 160.262 55.5559 160.262C45.3704 160.262 35.1852 160.262 25 160.262C11.1929 160.262 0 149.07 0 135.262V111.886Z" fill="#B7F8FF"/>
</svg>
