<svg width="452" height="226" viewBox="0 0 452 226" fill="none" xmlns="http://www.w3.org/2000/svg">
<rect width="452" height="226" fill="#F0F0F3"/>
<path d="M271.057 118.079C269.548 121.117 268.039 124.156 266.53 127.194C265.021 130.12 263.511 133.102 262.002 136.14C261.77 136.703 260.145 140.191 257.127 146.605L231.879 200.957H216.905L196.358 156.564C192.527 148.124 188.058 138.953 182.95 129.051C182.022 127.25 180.048 123.537 177.03 117.91V116.56H208.372L211.681 127.532L210.984 128.713C209.011 128.15 206.457 127.588 203.323 127.025C200.305 126.463 198.157 126.181 196.88 126.181L225.437 189.985L244.416 147.449C247.086 141.26 249.117 136.365 250.51 132.764C250.975 131.639 251.381 130.57 251.729 129.557C252.193 128.432 252.6 127.306 252.948 126.181C251.787 126.181 249.64 126.463 246.505 127.025C243.487 127.588 240.934 128.15 238.844 128.713L238.148 127.869L241.63 116.56H271.057V118.079Z" fill="#5CD8E5"/>
<path d="M280 117.53C278.459 120.59 276.919 123.65 275.378 126.71C273.837 129.657 272.296 132.66 270.756 135.72C270.519 136.287 268.859 139.8 265.778 146.26L240 201L224.711 201L203.733 156.29C199.822 147.79 195.259 138.553 190.044 128.58C189.096 126.767 187.081 123.027 184 117.36L184 116L216 116L219.378 127.05L218.667 128.24C216.652 127.673 214.044 127.107 210.844 126.54C207.763 125.973 205.57 125.69 204.267 125.69L233.422 189.95L252.8 147.11C255.526 140.877 257.6 135.947 259.022 132.32C259.496 131.187 259.911 130.11 260.267 129.09C260.741 127.957 261.156 126.823 261.511 125.69C260.326 125.69 258.133 125.973 254.933 126.54C251.852 127.107 249.244 127.673 247.111 128.24L246.4 127.39L249.956 116L280 116L280 117.53Z" fill="#B7F8FF"/>
<path d="M347 93V24H359V93H347Z" fill="black"/>
<path d="M299.767 95C294.489 95 289.839 93.8929 285.818 91.6788C281.797 89.4015 278.655 86.3017 276.393 82.3796C274.131 78.4574 273 73.9976 273 69C273 63.9392 274.162 59.4477 276.487 55.5255C278.875 51.6034 282.111 48.5353 286.195 46.3212C290.342 44.1071 295.054 43 300.332 43C303.537 43 306.49 43.4112 309.192 44.2336C311.956 44.9927 314.344 46.0681 316.355 47.4599C318.365 48.7883 319.968 50.2433 321.161 51.8248C322.418 53.4063 323.141 55.0195 323.329 56.6642L320.313 56.5693V44.0438H332V94.0511H320.219V80.8613L322.764 81.3358C322.575 82.854 321.821 84.4355 320.502 86.0803C319.182 87.6618 317.486 89.1168 315.412 90.4453C313.339 91.7737 310.951 92.8808 308.249 93.7664C305.61 94.5888 302.783 95 299.767 95ZM302.783 84.6569C306.301 84.6569 309.412 83.9927 312.113 82.6642C314.815 81.2725 316.92 79.4063 318.428 77.0657C319.936 74.6618 320.69 71.9732 320.69 69C320.69 65.9635 319.936 63.2749 318.428 60.9343C316.92 58.5937 314.815 56.7591 312.113 55.4307C309.412 54.1022 306.301 53.438 302.783 53.438C299.201 53.438 296.06 54.1022 293.358 55.4307C290.656 56.7591 288.551 58.5937 287.043 60.9343C285.535 63.2749 284.781 65.9635 284.781 69C284.781 71.9732 285.535 74.6618 287.043 77.0657C288.551 79.4063 290.656 81.2725 293.358 82.6642C296.06 83.9927 299.201 84.6569 302.783 84.6569Z" fill="black"/>
<path d="M223.404 114L236.623 90.4835L236.333 97.6843L207 45H220.895L235.465 73.074C236.88 75.6262 238.135 78.0264 239.228 80.2748C240.386 82.5231 241.222 84.6499 241.737 86.6552L239.325 86.9287C240.096 85.1057 240.997 83.0092 242.026 80.6394C243.12 78.2695 244.342 75.7477 245.693 73.074L259.298 45H273L246.754 93.4003L235.851 114H223.404Z" fill="black"/>
<path d="M178.089 95C172.438 95 167.411 93.8929 163.009 91.6788C158.667 89.4647 155.246 86.3966 152.748 82.4745C150.249 78.4891 149 73.9976 149 69C149 63.9392 150.249 59.4477 152.748 55.5255C155.246 51.6034 158.667 48.5353 163.009 46.3212C167.411 44.1071 172.438 43 178.089 43C183.681 43 188.648 44.1071 192.991 46.3212C197.393 48.5353 200.813 51.6034 203.252 55.5255C205.751 59.4477 207 63.9392 207 69C207 73.9976 205.751 78.4891 203.252 82.4745C200.813 86.3966 197.393 89.4647 192.991 91.6788C188.648 93.8929 183.681 95 178.089 95ZM178.089 84.6569C181.421 84.6569 184.454 83.9927 187.191 82.6642C189.927 81.2725 192.069 79.4063 193.615 77.0657C195.222 74.7251 195.965 72.0365 195.846 69C195.965 65.9002 195.222 63.18 193.615 60.8394C192.069 58.4988 189.927 56.6642 187.191 55.3358C184.454 54.0073 181.421 53.3431 178.089 53.3431C174.698 53.3431 171.635 54.0073 168.898 55.3358C166.162 56.6642 164.021 58.5304 162.474 60.9343C160.927 63.2749 160.184 65.9635 160.243 69C160.184 72.0365 160.927 74.7251 162.474 77.0657C164.021 79.4063 166.162 81.2725 168.898 82.6642C171.635 83.9927 174.698 84.6569 178.089 84.6569Z" fill="black"/>
<path d="M93 93V30H104.993V82.2H143V93H93Z" fill="black"/>
</svg>
