<svg width="116" height="46" viewBox="0 0 116 46" fill="none" xmlns="http://www.w3.org/2000/svg">
<g filter="url(#filter0_d_31_4)">
<rect width="108" height="38" rx="19" fill="#D9D9D9"/>
</g>
<path d="M13.216 23V12.6H16.944C18.064 12.6 18.8907 12.824 19.424 13.272C19.968 13.72 20.24 14.3867 20.24 15.272C20.24 15.848 20.1227 16.3227 19.888 16.696C19.6533 17.0693 19.2853 17.3467 18.784 17.528V17.56C19.9467 17.9013 20.528 18.744 20.528 20.088C20.528 22.0293 19.4027 23 17.152 23H13.216ZM15.152 16.776H16.592C17.2213 16.776 17.664 16.68 17.92 16.488C18.176 16.2853 18.304 15.9653 18.304 15.528C18.304 15.112 18.192 14.8133 17.968 14.632C17.744 14.4507 17.3547 14.36 16.8 14.36H15.152V16.776ZM15.152 21.24H16.992C17.5467 21.24 17.9467 21.1387 18.192 20.936C18.448 20.7227 18.576 20.3867 18.576 19.928C18.576 19.4373 18.432 19.0853 18.144 18.872C17.8667 18.648 17.4133 18.536 16.784 18.536H15.152V21.24ZM25.9213 23.192C25.1533 23.192 24.4759 23.0267 23.8893 22.696C23.3026 22.3547 22.8439 21.8853 22.5133 21.288C22.1826 20.68 22.0173 19.9813 22.0173 19.192C22.0173 18.392 22.1826 17.6933 22.5133 17.096C22.8439 16.4987 23.3026 16.0347 23.8893 15.704C24.4759 15.3627 25.1533 15.192 25.9213 15.192C26.6893 15.192 27.3666 15.3627 27.9533 15.704C28.5399 16.0347 28.9986 16.4987 29.3293 17.096C29.6599 17.6933 29.8253 18.392 29.8253 19.192C29.8253 19.9813 29.6599 20.68 29.3293 21.288C28.9986 21.8853 28.5399 22.3547 27.9533 22.696C27.3666 23.0267 26.6893 23.192 25.9213 23.192ZM25.9213 21.464C26.5399 21.464 27.0253 21.2667 27.3773 20.872C27.7293 20.4667 27.9053 19.9067 27.9053 19.192C27.9053 18.4773 27.7293 17.9227 27.3773 17.528C27.0253 17.1227 26.5399 16.92 25.9213 16.92C25.3026 16.92 24.8173 17.1227 24.4653 17.528C24.1133 17.9227 23.9373 18.4773 23.9373 19.192C23.9373 19.9067 24.1133 20.4667 24.4653 20.872C24.8173 21.2667 25.3026 21.464 25.9213 21.464ZM35.2025 23.192C34.4345 23.192 33.7572 23.0267 33.1705 22.696C32.5838 22.3547 32.1252 21.8853 31.7945 21.288C31.4638 20.68 31.2985 19.9813 31.2985 19.192C31.2985 18.392 31.4638 17.6933 31.7945 17.096C32.1252 16.4987 32.5838 16.0347 33.1705 15.704C33.7572 15.3627 34.4345 15.192 35.2025 15.192C35.9705 15.192 36.6478 15.3627 37.2345 15.704C37.8212 16.0347 38.2798 16.4987 38.6105 17.096C38.9412 17.6933 39.1065 18.392 39.1065 19.192C39.1065 19.9813 38.9412 20.68 38.6105 21.288C38.2798 21.8853 37.8212 22.3547 37.2345 22.696C36.6478 23.0267 35.9705 23.192 35.2025 23.192ZM35.2025 21.464C35.8212 21.464 36.3065 21.2667 36.6585 20.872C37.0105 20.4667 37.1865 19.9067 37.1865 19.192C37.1865 18.4773 37.0105 17.9227 36.6585 17.528C36.3065 17.1227 35.8212 16.92 35.2025 16.92C34.5838 16.92 34.0985 17.1227 33.7465 17.528C33.3945 17.9227 33.2185 18.4773 33.2185 19.192C33.2185 19.9067 33.3945 20.4667 33.7465 20.872C34.0985 21.2667 34.5838 21.464 35.2025 21.464ZM45.7638 23.192C43.8011 23.192 42.8198 22.216 42.8198 20.264V17.08H40.5958V15.384H42.8198V13.224L44.7078 12.408V15.384H47.5878V17.08H44.7078V19.976C44.7078 20.52 44.8091 20.904 45.0118 21.128C45.2251 21.352 45.5878 21.464 46.0998 21.464C46.7291 21.464 47.3371 21.2827 47.9237 20.92L48.4038 22.52C47.6358 22.968 46.7558 23.192 45.7638 23.192ZM53.701 23.192C52.2717 23.192 51.0503 22.8773 50.037 22.248L50.725 20.776C51.141 21.0427 51.605 21.2453 52.117 21.384C52.6397 21.5227 53.1837 21.592 53.749 21.592C54.8477 21.592 55.397 21.3307 55.397 20.808C55.397 20.5947 55.3383 20.44 55.221 20.344C55.1037 20.248 54.8903 20.184 54.581 20.152L52.821 19.944C52.0103 19.848 51.4077 19.624 51.013 19.272C50.629 18.9093 50.437 18.392 50.437 17.72C50.437 16.9093 50.725 16.2853 51.301 15.848C51.877 15.4107 52.7143 15.192 53.813 15.192C55.0077 15.192 56.101 15.448 57.093 15.96L56.485 17.464C55.7063 17.016 54.805 16.792 53.781 16.792C52.8103 16.792 52.325 17.048 52.325 17.56C52.325 17.7627 52.3837 17.912 52.501 18.008C52.629 18.104 52.8423 18.168 53.141 18.2L54.901 18.408C55.7117 18.504 56.309 18.7333 56.693 19.096C57.0877 19.448 57.285 19.9653 57.285 20.648C57.285 21.4587 56.9757 22.088 56.357 22.536C55.749 22.9733 54.8637 23.192 53.701 23.192ZM64.3263 23.192C62.3636 23.192 61.3823 22.216 61.3823 20.264V17.08H59.1583V15.384H61.3823V13.224L63.2703 12.408V15.384H66.1503V17.08H63.2703V19.976C63.2703 20.52 63.3716 20.904 63.5743 21.128C63.7876 21.352 64.1503 21.464 64.6623 21.464C65.2916 21.464 65.8996 21.2827 66.4862 20.92L66.9663 22.52C66.1983 22.968 65.3183 23.192 64.3263 23.192ZM69.4315 23V15.384H70.9035L71.0955 16.44C71.4902 16.0027 71.9168 15.688 72.3755 15.496C72.8342 15.2933 73.3515 15.192 73.9275 15.192C74.7062 15.192 75.3782 15.3947 75.9435 15.8L75.2395 17.432C75.0048 17.2613 74.7648 17.1387 74.5195 17.064C74.2848 16.9787 74.0288 16.936 73.7515 16.936C72.8448 16.936 72.0342 17.3733 71.3195 18.248V23H69.4315ZM80.7928 23.192C79.8648 23.192 79.1394 22.9787 78.6168 22.552C78.1048 22.1147 77.8488 21.5067 77.8488 20.728C77.8488 19.9813 78.0941 19.4107 78.5848 19.016C79.0861 18.6213 79.8061 18.424 80.7448 18.424H83.1288V18.28C83.1288 17.7467 83.0008 17.368 82.7448 17.144C82.4888 16.9093 82.0621 16.792 81.4648 16.792C80.5261 16.792 79.6514 17.0267 78.8408 17.496L78.2808 15.976C79.2728 15.4533 80.4034 15.192 81.6727 15.192C82.8248 15.192 83.6674 15.432 84.2008 15.912C84.7448 16.392 85.0168 17.144 85.0168 18.168V23H83.6248L83.4648 22.344C83.0488 22.6427 82.6221 22.8613 82.1848 23C81.7581 23.128 81.2941 23.192 80.7928 23.192ZM81.1927 21.592C81.9181 21.592 82.5634 21.432 83.1288 21.112V19.848H80.9208C80.5154 19.848 80.2221 19.9173 80.0408 20.056C79.8594 20.184 79.7688 20.3867 79.7688 20.664C79.7688 20.9733 79.8808 21.208 80.1048 21.368C80.3394 21.5173 80.7021 21.592 81.1927 21.592ZM87.466 26.36V15.384H88.858L89.018 16.024C89.8073 15.4693 90.6127 15.192 91.434 15.192C92.4367 15.192 93.2313 15.5547 93.818 16.28C94.4153 16.9947 94.714 17.9653 94.714 19.192C94.714 20.4187 94.4153 21.3947 93.818 22.12C93.2313 22.8347 92.4367 23.192 91.434 23.192C91.082 23.192 90.73 23.1387 90.378 23.032C90.0367 22.936 89.6953 22.7813 89.354 22.568V26.36H87.466ZM90.954 21.464C92.1913 21.464 92.81 20.7067 92.81 19.192C92.81 17.6773 92.1913 16.92 90.954 16.92C90.4207 16.92 89.8873 17.064 89.354 17.352V21.032C89.8873 21.32 90.4207 21.464 90.954 21.464Z" fill="black"/>
<defs>
<filter id="filter0_d_31_4" x="0" y="0" width="116" height="46" filterUnits="userSpaceOnUse" color-interpolation-filters="sRGB">
<feFlood flood-opacity="0" result="BackgroundImageFix"/>
<feColorMatrix in="SourceAlpha" type="matrix" values="0 0 0 0 0 0 0 0 0 0 0 0 0 0 0 0 0 0 127 0" result="hardAlpha"/>
<feOffset dx="4" dy="4"/>
<feGaussianBlur stdDeviation="2"/>
<feComposite in2="hardAlpha" operator="out"/>
<feColorMatrix type="matrix" values="0 0 0 0 0 0 0 0 0 0 0 0 0 0 0 0 0 0 0.25 0"/>
<feBlend mode="normal" in2="BackgroundImageFix" result="effect1_dropShadow_31_4"/>
<feBlend mode="normal" in="SourceGraphic" in2="effect1_dropShadow_31_4" result="shape"/>
</filter>
</defs>
</svg>
