<svg width="61" height="46" viewBox="0 0 61 46" fill="none" xmlns="http://www.w3.org/2000/svg">
<g filter="url(#filter0_d_31_11)">
<rect width="53" height="38" rx="19" fill="#D9D9D9"/>
</g>
<path d="M17.248 23.192C15.84 23.192 14.7627 22.7333 14.016 21.816C13.28 20.888 12.912 19.5493 12.912 17.8C12.912 16.0507 13.28 14.7173 14.016 13.8C14.7627 12.872 15.84 12.408 17.248 12.408C18.4213 12.408 19.4347 12.7867 20.288 13.544L19.312 15.032C18.6933 14.4773 18.0107 14.2 17.264 14.2C15.664 14.2 14.864 15.4 14.864 17.8C14.864 20.2 15.664 21.4 17.264 21.4C17.6907 21.4 18.0853 21.3147 18.448 21.144C18.8107 20.9733 19.1733 20.7067 19.536 20.344L20.624 21.736C20.1333 22.2373 19.6213 22.6053 19.088 22.84C18.5547 23.0747 17.9413 23.192 17.248 23.192ZM25.8253 23.192C25.0786 23.192 24.3853 23.0907 23.7453 22.888C23.1053 22.6747 22.5186 22.344 21.9853 21.896L22.9613 20.344C23.3773 20.7067 23.8253 20.9733 24.3053 21.144C24.7959 21.3147 25.3186 21.4 25.8733 21.4C27.1319 21.4 27.7613 20.952 27.7613 20.056C27.7613 19.7147 27.6706 19.4587 27.4893 19.288C27.3186 19.1067 27.0199 18.9627 26.5933 18.856L24.9133 18.44C24.0493 18.2267 23.4093 17.8907 22.9933 17.432C22.5879 16.9627 22.3853 16.3387 22.3853 15.56C22.3853 14.5787 22.7106 13.8107 23.3613 13.256C24.0119 12.6907 24.9239 12.408 26.0973 12.408C27.3666 12.408 28.4919 12.7547 29.4733 13.448L28.5613 15.032C27.8786 14.4773 27.0573 14.2 26.0973 14.2C24.9133 14.2 24.3213 14.6213 24.3213 15.464C24.3213 15.7627 24.4066 16.0027 24.5773 16.184C24.7586 16.3547 25.0626 16.4933 25.4893 16.6L27.1693 17.016C28.0333 17.2293 28.6679 17.5707 29.0733 18.04C29.4893 18.4987 29.6973 19.1387 29.6973 19.96C29.6973 20.9627 29.3559 21.752 28.6733 22.328C28.0013 22.904 27.0519 23.192 25.8253 23.192ZM35.1065 23.192C34.3598 23.192 33.6665 23.0907 33.0265 22.888C32.3865 22.6747 31.7998 22.344 31.2665 21.896L32.2425 20.344C32.6585 20.7067 33.1065 20.9733 33.5865 21.144C34.0772 21.3147 34.5998 21.4 35.1545 21.4C36.4132 21.4 37.0425 20.952 37.0425 20.056C37.0425 19.7147 36.9518 19.4587 36.7705 19.288C36.5998 19.1067 36.3012 18.9627 35.8745 18.856L34.1945 18.44C33.3305 18.2267 32.6905 17.8907 32.2745 17.432C31.8692 16.9627 31.6665 16.3387 31.6665 15.56C31.6665 14.5787 31.9918 13.8107 32.6425 13.256C33.2932 12.6907 34.2052 12.408 35.3785 12.408C36.6478 12.408 37.7732 12.7547 38.7545 13.448L37.8425 15.032C37.1598 14.4773 36.3385 14.2 35.3785 14.2C34.1945 14.2 33.6025 14.6213 33.6025 15.464C33.6025 15.7627 33.6878 16.0027 33.8585 16.184C34.0398 16.3547 34.3438 16.4933 34.7705 16.6L36.4505 17.016C37.3145 17.2293 37.9492 17.5707 38.3545 18.04C38.7705 18.4987 38.9785 19.1387 38.9785 19.96C38.9785 20.9627 38.6372 21.752 37.9545 22.328C37.2825 22.904 36.3332 23.192 35.1065 23.192Z" fill="black"/>
<defs>
<filter id="filter0_d_31_11" x="0" y="0" width="61" height="46" filterUnits="userSpaceOnUse" color-interpolation-filters="sRGB">
<feFlood flood-opacity="0" result="BackgroundImageFix"/>
<feColorMatrix in="SourceAlpha" type="matrix" values="0 0 0 0 0 0 0 0 0 0 0 0 0 0 0 0 0 0 127 0" result="hardAlpha"/>
<feOffset dx="4" dy="4"/>
<feGaussianBlur stdDeviation="2"/>
<feComposite in2="hardAlpha" operator="out"/>
<feColorMatrix type="matrix" values="0 0 0 0 0 0 0 0 0 0 0 0 0 0 0 0 0 0 0.25 0"/>
<feBlend mode="normal" in2="BackgroundImageFix" result="effect1_dropShadow_31_11"/>
<feBlend mode="normal" in="SourceGraphic" in2="effect1_dropShadow_31_11" result="shape"/>
</filter>
</defs>
</svg>
