<svg width="79" height="46" viewBox="0 0 79 46" fill="none" xmlns="http://www.w3.org/2000/svg">
<g filter="url(#filter0_d_31_5)">
<rect width="71" height="38" rx="19" fill="#D9D9D9"/>
</g>
<path d="M13.568 23V12.6H20.4V14.36H15.488V16.952H19.632V18.712H15.488V23H13.568ZM24.9773 23V17.08H22.0333V15.384H26.8653V21.304H29.8093V23H24.9773ZM25.7613 14.008C25.3986 14.008 25.0946 13.8853 24.8493 13.64C24.6039 13.3947 24.4813 13.0907 24.4813 12.728C24.4813 12.3653 24.6039 12.0613 24.8493 11.816C25.0946 11.5707 25.3986 11.448 25.7613 11.448C26.1239 11.448 26.4279 11.5707 26.6733 11.816C26.9186 12.0613 27.0413 12.3653 27.0413 12.728C27.0413 13.0907 26.9186 13.3947 26.6733 13.64C26.4279 13.8853 26.1239 14.008 25.7613 14.008ZM34.9145 26.552C34.3385 26.552 33.7838 26.4827 33.2505 26.344C32.7278 26.216 32.2105 26.0027 31.6985 25.704L32.3065 24.152C32.6798 24.376 33.0798 24.5413 33.5065 24.648C33.9332 24.7653 34.3598 24.824 34.7865 24.824C35.4585 24.824 35.9492 24.6853 36.2585 24.408C36.5785 24.1413 36.7385 23.7307 36.7385 23.176V22.408C36.3972 22.6213 36.0505 22.7813 35.6985 22.888C35.3572 22.984 35.0105 23.032 34.6585 23.032C33.9972 23.032 33.4158 22.8667 32.9145 22.536C32.4238 22.2053 32.0452 21.7467 31.7785 21.16C31.5118 20.5733 31.3785 19.8907 31.3785 19.112C31.3785 18.3333 31.5118 17.6507 31.7785 17.064C32.0452 16.4773 32.4238 16.0187 32.9145 15.688C33.4158 15.3573 33.9972 15.192 34.6585 15.192C35.4798 15.192 36.2852 15.4693 37.0745 16.024L37.2345 15.384H38.6265V23.304C38.6265 24.36 38.3065 25.1653 37.6665 25.72C37.0372 26.2747 36.1198 26.552 34.9145 26.552ZM35.1385 21.304C35.6825 21.304 36.2158 21.16 36.7385 20.872V17.352C36.2158 17.064 35.6825 16.92 35.1385 16.92C34.5198 16.92 34.0558 17.112 33.7465 17.496C33.4372 17.8693 33.2825 18.408 33.2825 19.112C33.2825 19.816 33.4372 20.36 33.7465 20.744C34.0558 21.1173 34.5198 21.304 35.1385 21.304ZM40.5478 23V15.384H41.6678L41.8118 15.96C42.3558 15.448 42.9424 15.192 43.5718 15.192C44.2331 15.192 44.7184 15.448 45.0278 15.96C45.5398 15.448 46.1051 15.192 46.7238 15.192C47.2678 15.192 47.6944 15.368 48.0038 15.72C48.3238 16.0613 48.4838 16.5307 48.4838 17.128V23H46.8518V17.352C46.8518 16.968 46.6438 16.776 46.2278 16.776C45.8971 16.776 45.5984 16.8933 45.3318 17.128V23H43.6998V17.352C43.6998 16.968 43.4918 16.776 43.0758 16.776C42.7558 16.776 42.4571 16.888 42.1798 17.112V23H40.5478ZM52.949 23.192C52.021 23.192 51.2957 22.9787 50.773 22.552C50.261 22.1147 50.005 21.5067 50.005 20.728C50.005 19.9813 50.2503 19.4107 50.741 19.016C51.2423 18.6213 51.9623 18.424 52.901 18.424H55.285V18.28C55.285 17.7467 55.157 17.368 54.901 17.144C54.645 16.9093 54.2183 16.792 53.621 16.792C52.6823 16.792 51.8077 17.0267 50.997 17.496L50.437 15.976C51.429 15.4533 52.5597 15.192 53.829 15.192C54.981 15.192 55.8237 15.432 56.357 15.912C56.901 16.392 57.173 17.144 57.173 18.168V23H55.781L55.621 22.344C55.205 22.6427 54.7783 22.8613 54.341 23C53.9143 23.128 53.4503 23.192 52.949 23.192ZM53.349 21.592C54.0743 21.592 54.7197 21.432 55.285 21.112V19.848H53.077C52.6717 19.848 52.3783 19.9173 52.197 20.056C52.0157 20.184 51.925 20.3867 51.925 20.664C51.925 20.9733 52.037 21.208 52.261 21.368C52.4957 21.5173 52.8583 21.592 53.349 21.592Z" fill="black"/>
<defs>
<filter id="filter0_d_31_5" x="0" y="0" width="79" height="46" filterUnits="userSpaceOnUse" color-interpolation-filters="sRGB">
<feFlood flood-opacity="0" result="BackgroundImageFix"/>
<feColorMatrix in="SourceAlpha" type="matrix" values="0 0 0 0 0 0 0 0 0 0 0 0 0 0 0 0 0 0 127 0" result="hardAlpha"/>
<feOffset dx="4" dy="4"/>
<feGaussianBlur stdDeviation="2"/>
<feComposite in2="hardAlpha" operator="out"/>
<feColorMatrix type="matrix" values="0 0 0 0 0 0 0 0 0 0 0 0 0 0 0 0 0 0 0.25 0"/>
<feBlend mode="normal" in2="BackgroundImageFix" result="effect1_dropShadow_31_5"/>
<feBlend mode="normal" in="SourceGraphic" in2="effect1_dropShadow_31_5" result="shape"/>
</filter>
</defs>
</svg>
