<svg width="89" height="46" viewBox="0 0 89 46" fill="none" xmlns="http://www.w3.org/2000/svg">
<g filter="url(#filter0_d_31_8)">
<rect width="81" height="38" rx="19" fill="#D9D9D9"/>
</g>
<path d="M16.656 23.192C15.8453 23.192 15.1467 22.9787 14.56 22.552C13.9733 22.1147 13.52 21.4907 13.2 20.68C12.8907 19.8693 12.736 18.9093 12.736 17.8C12.736 16.0507 13.104 14.7173 13.84 13.8C14.5867 12.872 15.664 12.408 17.072 12.408C18.2453 12.408 19.2587 12.7867 20.112 13.544L19.136 15.032C18.5173 14.4773 17.8347 14.2 17.088 14.2C15.488 14.2 14.688 15.4 14.688 17.8C14.688 20.2 15.472 21.4 17.04 21.4C17.5733 21.4 18.048 21.2453 18.464 20.936V18.696H16.752V16.936H20.384V23H19.104L18.928 22.296C18.5973 22.6053 18.2453 22.8347 17.872 22.984C17.4987 23.1227 17.0933 23.192 16.656 23.192ZM24.9773 23V17.08H22.0333V15.384H26.8653V21.304H29.8093V23H24.9773ZM25.7613 14.008C25.3986 14.008 25.0946 13.8853 24.8493 13.64C24.6039 13.3947 24.4813 13.0907 24.4813 12.728C24.4813 12.3653 24.6039 12.0613 24.8493 11.816C25.0946 11.5707 25.3986 11.448 25.7613 11.448C26.1239 11.448 26.4279 11.5707 26.6733 11.816C26.9186 12.0613 27.0413 12.3653 27.0413 12.728C27.0413 13.0907 26.9186 13.3947 26.6733 13.64C26.4279 13.8853 26.1239 14.008 25.7613 14.008ZM36.4825 23.192C34.5198 23.192 33.5385 22.216 33.5385 20.264V17.08H31.3145V15.384H33.5385V13.224L35.4265 12.408V15.384H38.3065V17.08H35.4265V19.976C35.4265 20.52 35.5278 20.904 35.7305 21.128C35.9438 21.352 36.3065 21.464 36.8185 21.464C37.4478 21.464 38.0558 21.2827 38.6425 20.92L39.1225 22.52C38.3545 22.968 37.4745 23.192 36.4825 23.192ZM41.1398 23V11.64H43.0278V15.816C43.6891 15.4 44.4038 15.192 45.1718 15.192C46.0678 15.192 46.7558 15.448 47.2358 15.96C47.7158 16.4613 47.9558 17.1813 47.9558 18.12V23H46.0678V18.408C46.0678 17.864 45.9611 17.48 45.7478 17.256C45.5451 17.032 45.1878 16.92 44.6758 16.92C44.3771 16.92 44.0944 16.9573 43.8278 17.032C43.5718 17.096 43.3051 17.2027 43.0278 17.352V23H41.1398ZM53.077 23.192C52.181 23.192 51.493 22.9413 51.013 22.44C50.533 21.928 50.293 21.2027 50.293 20.264V15.384H52.181V19.976C52.181 20.52 52.2823 20.904 52.485 21.128C52.6983 21.352 53.061 21.464 53.573 21.464C53.8717 21.464 54.1543 21.4267 54.421 21.352C54.6877 21.2773 54.9543 21.1707 55.221 21.032V15.384H57.109V23H55.717L55.557 22.344C55.1623 22.6427 54.7623 22.8613 54.357 23C53.9517 23.128 53.525 23.192 53.077 23.192ZM63.5903 23.192C62.7689 23.192 61.9636 22.9147 61.1743 22.36L61.0143 23H59.6223V11.64H61.5103V15.816C61.8516 15.6027 62.1929 15.448 62.5343 15.352C62.8863 15.2453 63.2383 15.192 63.5903 15.192C64.5929 15.192 65.3876 15.5547 65.9743 16.28C66.5716 16.9947 66.8703 17.9653 66.8703 19.192C66.8703 20.4187 66.5716 21.3947 65.9743 22.12C65.3876 22.8347 64.5929 23.192 63.5903 23.192ZM63.1102 21.464C64.3476 21.464 64.9663 20.7067 64.9663 19.192C64.9663 17.6773 64.3476 16.92 63.1102 16.92C62.5769 16.92 62.0436 17.064 61.5103 17.352V21.032C62.0436 21.32 62.5769 21.464 63.1102 21.464Z" fill="black"/>
<defs>
<filter id="filter0_d_31_8" x="0" y="0" width="89" height="46" filterUnits="userSpaceOnUse" color-interpolation-filters="sRGB">
<feFlood flood-opacity="0" result="BackgroundImageFix"/>
<feColorMatrix in="SourceAlpha" type="matrix" values="0 0 0 0 0 0 0 0 0 0 0 0 0 0 0 0 0 0 127 0" result="hardAlpha"/>
<feOffset dx="4" dy="4"/>
<feGaussianBlur stdDeviation="2"/>
<feComposite in2="hardAlpha" operator="out"/>
<feColorMatrix type="matrix" values="0 0 0 0 0 0 0 0 0 0 0 0 0 0 0 0 0 0 0.25 0"/>
<feBlend mode="normal" in2="BackgroundImageFix" result="effect1_dropShadow_31_8"/>
<feBlend mode="normal" in="SourceGraphic" in2="effect1_dropShadow_31_8" result="shape"/>
</filter>
</defs>
</svg>
