<svg width="88" height="46" viewBox="0 0 88 46" fill="none" xmlns="http://www.w3.org/2000/svg">
<g filter="url(#filter0_d_31_13)">
<rect width="80" height="38" rx="19" fill="#D9D9D9"/>
</g>
<path d="M13.04 23V12.6H14.96V16.824H18.32V12.6H20.24V23H18.32V18.584H14.96V23H13.04ZM26.3533 23.192C25.0306 23.192 23.9906 22.8347 23.2333 22.12C22.4759 21.4053 22.0973 20.4293 22.0973 19.192C22.0973 18.392 22.2626 17.6933 22.5933 17.096C22.9239 16.4987 23.3826 16.0347 23.9693 15.704C24.5559 15.3627 25.2386 15.192 26.0173 15.192C26.7746 15.192 27.4306 15.352 27.9853 15.672C28.5506 15.9813 28.9879 16.4187 29.2973 16.984C29.6066 17.5493 29.7613 18.2107 29.7613 18.968C29.7613 19.1067 29.7559 19.2507 29.7453 19.4C29.7346 19.5387 29.7133 19.688 29.6813 19.848H24.0173C24.2199 21.0107 25.0039 21.592 26.3693 21.592C27.1693 21.592 27.9533 21.3467 28.7213 20.856L29.4253 22.248C28.9346 22.5787 28.4439 22.8187 27.9533 22.968C27.4626 23.1173 26.9293 23.192 26.3533 23.192ZM24.0333 18.424H27.9053C27.7239 17.336 27.0893 16.792 26.0013 16.792C24.9239 16.792 24.2679 17.336 24.0333 18.424ZM32.3065 23V15.384H33.7785L33.9705 16.44C34.3652 16.0027 34.7918 15.688 35.2505 15.496C35.7092 15.2933 36.2265 15.192 36.8025 15.192C37.5812 15.192 38.2532 15.3947 38.8185 15.8L38.1145 17.432C37.8798 17.2613 37.6398 17.1387 37.3945 17.064C37.1598 16.9787 36.9038 16.936 36.6265 16.936C35.7198 16.936 34.9092 17.3733 34.1945 18.248V23H32.3065ZM44.4838 23.192C43.7158 23.192 43.0384 23.0267 42.4518 22.696C41.8651 22.3547 41.4064 21.8853 41.0758 21.288C40.7451 20.68 40.5798 19.9813 40.5798 19.192C40.5798 18.392 40.7451 17.6933 41.0758 17.096C41.4064 16.4987 41.8651 16.0347 42.4518 15.704C43.0384 15.3627 43.7158 15.192 44.4838 15.192C45.2518 15.192 45.9291 15.3627 46.5158 15.704C47.1024 16.0347 47.5611 16.4987 47.8918 17.096C48.2224 17.6933 48.3878 18.392 48.3878 19.192C48.3878 19.9813 48.2224 20.68 47.8918 21.288C47.5611 21.8853 47.1024 22.3547 46.5158 22.696C45.9291 23.0267 45.2518 23.192 44.4838 23.192ZM44.4838 21.464C45.1024 21.464 45.5878 21.2667 45.9398 20.872C46.2918 20.4667 46.4678 19.9067 46.4678 19.192C46.4678 18.4773 46.2918 17.9227 45.9398 17.528C45.5878 17.1227 45.1024 16.92 44.4838 16.92C43.8651 16.92 43.3798 17.1227 43.0278 17.528C42.6758 17.9227 42.4998 18.4773 42.4998 19.192C42.4998 19.9067 42.6758 20.4667 43.0278 20.872C43.3798 21.2667 43.8651 21.464 44.4838 21.464ZM50.421 23V11.64H52.309V18.616L55.525 15.384H57.957L54.773 18.44L58.037 23H55.717L53.413 19.752L52.309 20.824V23H50.421ZM62.3583 23.192C61.4623 23.192 60.7743 22.9413 60.2943 22.44C59.8143 21.928 59.5743 21.2027 59.5743 20.264V15.384H61.4623V19.976C61.4623 20.52 61.5636 20.904 61.7663 21.128C61.9796 21.352 62.3423 21.464 62.8543 21.464C63.1529 21.464 63.4356 21.4267 63.7023 21.352C63.9689 21.2773 64.2356 21.1707 64.5023 21.032V15.384H66.3903V23H64.9983L64.8383 22.344C64.4436 22.6427 64.0436 22.8613 63.6383 23C63.2329 23.128 62.8063 23.192 62.3583 23.192Z" fill="black"/>
<defs>
<filter id="filter0_d_31_13" x="0" y="0" width="88" height="46" filterUnits="userSpaceOnUse" color-interpolation-filters="sRGB">
<feFlood flood-opacity="0" result="BackgroundImageFix"/>
<feColorMatrix in="SourceAlpha" type="matrix" values="0 0 0 0 0 0 0 0 0 0 0 0 0 0 0 0 0 0 127 0" result="hardAlpha"/>
<feOffset dx="4" dy="4"/>
<feGaussianBlur stdDeviation="2"/>
<feComposite in2="hardAlpha" operator="out"/>
<feColorMatrix type="matrix" values="0 0 0 0 0 0 0 0 0 0 0 0 0 0 0 0 0 0 0.25 0"/>
<feBlend mode="normal" in2="BackgroundImageFix" result="effect1_dropShadow_31_13"/>
<feBlend mode="normal" in="SourceGraphic" in2="effect1_dropShadow_31_13" result="shape"/>
</filter>
</defs>
</svg>
