<svg width="70" height="46" viewBox="0 0 70 46" fill="none" xmlns="http://www.w3.org/2000/svg">
<g filter="url(#filter0_d_31_10)">
<rect width="62" height="38" rx="19" fill="#D9D9D9"/>
</g>
<path d="M13.04 23V12.6H14.96V16.824H18.32V12.6H20.24V23H18.32V18.584H14.96V23H13.04ZM24.9613 23V14.376H21.7613V12.6H30.0813V14.376H26.8813V23H24.9613ZM31.4425 23V12.6H33.6985L35.1705 17.832L36.6425 12.6H38.9625V23H37.2345V15.352L35.6505 20.984H34.6585L33.0745 15.352V23H31.4425ZM41.4118 23V12.6H43.3318V21.24H48.2438V23H41.4118Z" fill="black"/>
<defs>
<filter id="filter0_d_31_10" x="0" y="0" width="70" height="46" filterUnits="userSpaceOnUse" color-interpolation-filters="sRGB">
<feFlood flood-opacity="0" result="BackgroundImageFix"/>
<feColorMatrix in="SourceAlpha" type="matrix" values="0 0 0 0 0 0 0 0 0 0 0 0 0 0 0 0 0 0 127 0" result="hardAlpha"/>
<feOffset dx="4" dy="4"/>
<feGaussianBlur stdDeviation="2"/>
<feComposite in2="hardAlpha" operator="out"/>
<feColorMatrix type="matrix" values="0 0 0 0 0 0 0 0 0 0 0 0 0 0 0 0 0 0 0.25 0"/>
<feBlend mode="normal" in2="BackgroundImageFix" result="effect1_dropShadow_31_10"/>
<feBlend mode="normal" in="SourceGraphic" in2="effect1_dropShadow_31_10" result="shape"/>
</filter>
</defs>
</svg>
