<svg width="125" height="46" viewBox="0 0 125 46" fill="none" xmlns="http://www.w3.org/2000/svg">
<g filter="url(#filter0_d_31_6)">
<rect width="117" height="38" rx="19" fill="#D9D9D9"/>
</g>
<path d="M16.24 23.192C15.5467 23.192 14.9227 23.08 14.368 22.856C13.8133 22.6213 13.2853 22.2533 12.784 21.752L13.872 20.328C14.2347 20.7013 14.5973 20.9733 14.96 21.144C15.3227 21.3147 15.7173 21.4 16.144 21.4C17.3173 21.4 17.904 20.824 17.904 19.672V14.36H14.512V12.6H19.84V19.784C19.84 20.872 19.5253 21.7147 18.896 22.312C18.2773 22.8987 17.392 23.192 16.24 23.192ZM25.1053 23.192C24.1773 23.192 23.4519 22.9787 22.9293 22.552C22.4173 22.1147 22.1613 21.5067 22.1613 20.728C22.1613 19.9813 22.4066 19.4107 22.8973 19.016C23.3986 18.6213 24.1186 18.424 25.0573 18.424H27.4413V18.28C27.4413 17.7467 27.3133 17.368 27.0573 17.144C26.8013 16.9093 26.3746 16.792 25.7773 16.792C24.8386 16.792 23.9639 17.0267 23.1533 17.496L22.5933 15.976C23.5853 15.4533 24.7159 15.192 25.9852 15.192C27.1373 15.192 27.9799 15.432 28.5133 15.912C29.0573 16.392 29.3293 17.144 29.3293 18.168V23H27.9373L27.7773 22.344C27.3613 22.6427 26.9346 22.8613 26.4973 23C26.0706 23.128 25.6066 23.192 25.1053 23.192ZM25.5052 21.592C26.2306 21.592 26.8759 21.432 27.4413 21.112V19.848H25.2333C24.8279 19.848 24.5346 19.9173 24.3533 20.056C24.1719 20.184 24.0813 20.3867 24.0813 20.664C24.0813 20.9733 24.1933 21.208 24.4173 21.368C24.6519 21.5173 25.0146 21.592 25.5052 21.592ZM34.2425 23L31.2505 15.384H33.2665L35.2665 20.648L37.2665 15.384H39.1545L36.1625 23H34.2425ZM43.6678 23.192C42.7398 23.192 42.0144 22.9787 41.4918 22.552C40.9798 22.1147 40.7238 21.5067 40.7238 20.728C40.7238 19.9813 40.9691 19.4107 41.4598 19.016C41.9611 18.6213 42.6811 18.424 43.6198 18.424H46.0038V18.28C46.0038 17.7467 45.8758 17.368 45.6198 17.144C45.3638 16.9093 44.9371 16.792 44.3398 16.792C43.4011 16.792 42.5264 17.0267 41.7158 17.496L41.1558 15.976C42.1478 15.4533 43.2784 15.192 44.5477 15.192C45.6998 15.192 46.5424 15.432 47.0758 15.912C47.6198 16.392 47.8918 17.144 47.8918 18.168V23H46.4998L46.3398 22.344C45.9238 22.6427 45.4971 22.8613 45.0598 23C44.6331 23.128 44.1691 23.192 43.6678 23.192ZM44.0677 21.592C44.7931 21.592 45.4384 21.432 46.0038 21.112V19.848H43.7958C43.3904 19.848 43.0971 19.9173 42.9158 20.056C42.7344 20.184 42.6438 20.3867 42.6438 20.664C42.6438 20.9733 42.7558 21.208 42.9798 21.368C43.2144 21.5173 43.5771 21.592 44.0677 21.592ZM53.701 23.192C52.2717 23.192 51.0503 22.8773 50.037 22.248L50.725 20.776C51.141 21.0427 51.605 21.2453 52.117 21.384C52.6397 21.5227 53.1837 21.592 53.749 21.592C54.8477 21.592 55.397 21.3307 55.397 20.808C55.397 20.5947 55.3383 20.44 55.221 20.344C55.1037 20.248 54.8903 20.184 54.581 20.152L52.821 19.944C52.0103 19.848 51.4077 19.624 51.013 19.272C50.629 18.9093 50.437 18.392 50.437 17.72C50.437 16.9093 50.725 16.2853 51.301 15.848C51.877 15.4107 52.7143 15.192 53.813 15.192C55.0077 15.192 56.101 15.448 57.093 15.96L56.485 17.464C55.7063 17.016 54.805 16.792 53.781 16.792C52.8103 16.792 52.325 17.048 52.325 17.56C52.325 17.7627 52.3837 17.912 52.501 18.008C52.629 18.104 52.8423 18.168 53.141 18.2L54.901 18.408C55.7117 18.504 56.309 18.7333 56.693 19.096C57.0877 19.448 57.285 19.9653 57.285 20.648C57.285 21.4587 56.9757 22.088 56.357 22.536C55.749 22.9733 54.8637 23.192 53.701 23.192ZM63.6863 23.192C62.8543 23.192 62.1289 23.032 61.5103 22.712C60.9023 22.3813 60.4276 21.9173 60.0863 21.32C59.7556 20.7227 59.5903 20.0133 59.5903 19.192C59.5903 18.3707 59.7556 17.6613 60.0863 17.064C60.4276 16.4667 60.9023 16.008 61.5103 15.688C62.1289 15.3573 62.8543 15.192 63.6863 15.192C64.6783 15.192 65.5849 15.4533 66.4062 15.976L65.7503 17.528C65.3556 17.304 65.0036 17.1493 64.6943 17.064C64.3956 16.968 64.0756 16.92 63.7343 16.92C62.2516 16.92 61.5103 17.6773 61.5103 19.192C61.5103 20.7067 62.2516 21.464 63.7343 21.464C64.1076 21.464 64.4596 21.4107 64.7903 21.304C65.1209 21.1973 65.5049 21.0107 65.9423 20.744L66.6463 22.248C65.7609 22.8773 64.7743 23.192 63.6863 23.192ZM69.4315 23V15.384H70.9035L71.0955 16.44C71.4902 16.0027 71.9168 15.688 72.3755 15.496C72.8342 15.2933 73.3515 15.192 73.9275 15.192C74.7062 15.192 75.3782 15.3947 75.9435 15.8L75.2395 17.432C75.0048 17.2613 74.7648 17.1387 74.5195 17.064C74.2848 16.9787 74.0288 16.936 73.7515 16.936C72.8448 16.936 72.0342 17.3733 71.3195 18.248V23H69.4315ZM80.6648 23V17.08H77.7208V15.384H82.5528V21.304H85.4968V23H80.6648ZM81.4488 14.008C81.0861 14.008 80.7821 13.8853 80.5368 13.64C80.2914 13.3947 80.1688 13.0907 80.1688 12.728C80.1688 12.3653 80.2914 12.0613 80.5368 11.816C80.7821 11.5707 81.0861 11.448 81.4488 11.448C81.8114 11.448 82.1154 11.5707 82.3608 11.816C82.6061 12.0613 82.7288 12.3653 82.7288 12.728C82.7288 13.0907 82.6061 13.3947 82.3608 13.64C82.1154 13.8853 81.8114 14.008 81.4488 14.008ZM87.466 26.36V15.384H88.858L89.018 16.024C89.8073 15.4693 90.6127 15.192 91.434 15.192C92.4367 15.192 93.2313 15.5547 93.818 16.28C94.4153 16.9947 94.714 17.9653 94.714 19.192C94.714 20.4187 94.4153 21.3947 93.818 22.12C93.2313 22.8347 92.4367 23.192 91.434 23.192C91.082 23.192 90.73 23.1387 90.378 23.032C90.0367 22.936 89.6953 22.7813 89.354 22.568V26.36H87.466ZM90.954 21.464C92.1913 21.464 92.81 20.7067 92.81 19.192C92.81 17.6773 92.1913 16.92 90.954 16.92C90.4207 16.92 89.8873 17.064 89.354 17.352V21.032C89.8873 21.32 90.4207 21.464 90.954 21.464ZM101.451 23.192C99.4886 23.192 98.5073 22.216 98.5073 20.264V17.08H96.2833V15.384H98.5073V13.224L100.395 12.408V15.384H103.275V17.08H100.395V19.976C100.395 20.52 100.497 20.904 100.699 21.128C100.913 21.352 101.275 21.464 101.787 21.464C102.417 21.464 103.025 21.2827 103.611 20.92L104.091 22.52C103.323 22.968 102.443 23.192 101.451 23.192Z" fill="black"/>
<defs>
<filter id="filter0_d_31_6" x="0" y="0" width="125" height="46" filterUnits="userSpaceOnUse" color-interpolation-filters="sRGB">
<feFlood flood-opacity="0" result="BackgroundImageFix"/>
<feColorMatrix in="SourceAlpha" type="matrix" values="0 0 0 0 0 0 0 0 0 0 0 0 0 0 0 0 0 0 127 0" result="hardAlpha"/>
<feOffset dx="4" dy="4"/>
<feGaussianBlur stdDeviation="2"/>
<feComposite in2="hardAlpha" operator="out"/>
<feColorMatrix type="matrix" values="0 0 0 0 0 0 0 0 0 0 0 0 0 0 0 0 0 0 0.25 0"/>
<feBlend mode="normal" in2="BackgroundImageFix" result="effect1_dropShadow_31_6"/>
<feBlend mode="normal" in="SourceGraphic" in2="effect1_dropShadow_31_6" result="shape"/>
</filter>
</defs>
</svg>
