<svg width="153" height="46" viewBox="0 0 153 46" fill="none" xmlns="http://www.w3.org/2000/svg">
<g filter="url(#filter0_d_31_2)">
<rect width="145" height="38" rx="19" fill="#D9D9D9"/>
</g>
<path d="M13.136 23V12.6H16.912C18.0107 12.6 18.848 12.8667 19.424 13.4C20.0107 13.9333 20.304 14.7067 20.304 15.72C20.304 17.2667 19.648 18.2427 18.336 18.648L20.864 23H18.624L16.256 18.84H15.072V23H13.136ZM15.072 17.08H16.752C17.3173 17.08 17.7227 16.9733 17.968 16.76C18.224 16.5467 18.352 16.2 18.352 15.72C18.352 15.24 18.224 14.8933 17.968 14.68C17.7227 14.4667 17.3173 14.36 16.752 14.36H15.072V17.08ZM25.2333 23.192C24.3373 23.192 23.6493 22.9413 23.1693 22.44C22.6893 21.928 22.4493 21.2027 22.4493 20.264V15.384H24.3373V19.976C24.3373 20.52 24.4386 20.904 24.6413 21.128C24.8546 21.352 25.2173 21.464 25.7293 21.464C26.0279 21.464 26.3106 21.4267 26.5773 21.352C26.8439 21.2773 27.1106 21.1707 27.3773 21.032V15.384H29.2653V23H27.8733L27.7133 22.344C27.3186 22.6427 26.9186 22.8613 26.5133 23C26.1079 23.128 25.6813 23.192 25.2333 23.192ZM35.7465 23.192C34.9252 23.192 34.1198 22.9147 33.3305 22.36L33.1705 23H31.7785V11.64H33.6665V15.816C34.0078 15.6027 34.3492 15.448 34.6905 15.352C35.0425 15.2453 35.3945 15.192 35.7465 15.192C36.7492 15.192 37.5438 15.5547 38.1305 16.28C38.7278 16.9947 39.0265 17.9653 39.0265 19.192C39.0265 20.4187 38.7278 21.3947 38.1305 22.12C37.5438 22.8347 36.7492 23.192 35.7465 23.192ZM35.2665 21.464C36.5038 21.464 37.1225 20.7067 37.1225 19.192C37.1225 17.6773 36.5038 16.92 35.2665 16.92C34.7332 16.92 34.1998 17.064 33.6665 17.352V21.032C34.1998 21.32 34.7332 21.464 35.2665 21.464ZM42.0358 26.552C41.2571 26.552 40.5904 26.376 40.0358 26.024L40.6118 24.456C41.0278 24.7013 41.4544 24.824 41.8918 24.824C42.2651 24.824 42.5584 24.7333 42.7718 24.552C42.9958 24.3813 43.1931 24.0667 43.3638 23.608L43.5878 23.016L40.5318 15.384H42.5478L44.5477 20.536L46.5478 15.384H48.4358L44.9638 24.344C44.6544 25.1547 44.2758 25.7253 43.8278 26.056C43.3904 26.3867 42.7931 26.552 42.0358 26.552ZM63.0463 23.192C62.2783 23.192 61.6009 23.0267 61.0143 22.696C60.4276 22.3547 59.9689 21.8853 59.6383 21.288C59.3076 20.68 59.1423 19.9813 59.1423 19.192C59.1423 18.392 59.3076 17.6933 59.6383 17.096C59.9689 16.4987 60.4276 16.0347 61.0143 15.704C61.6009 15.3627 62.2783 15.192 63.0463 15.192C63.8143 15.192 64.4916 15.3627 65.0783 15.704C65.6649 16.0347 66.1236 16.4987 66.4543 17.096C66.7849 17.6933 66.9503 18.392 66.9503 19.192C66.9503 19.9813 66.7849 20.68 66.4543 21.288C66.1236 21.8853 65.6649 22.3547 65.0783 22.696C64.4916 23.0267 63.8143 23.192 63.0463 23.192ZM63.0463 21.464C63.6649 21.464 64.1503 21.2667 64.5023 20.872C64.8543 20.4667 65.0303 19.9067 65.0303 19.192C65.0303 18.4773 64.8543 17.9227 64.5023 17.528C64.1503 17.1227 63.6649 16.92 63.0463 16.92C62.4276 16.92 61.9423 17.1227 61.5903 17.528C61.2383 17.9227 61.0623 18.4773 61.0623 19.192C61.0623 19.9067 61.2383 20.4667 61.5903 20.872C61.9423 21.2667 62.4276 21.464 63.0463 21.464ZM68.9835 23V15.384H70.3755L70.5355 16.04C70.9408 15.7413 71.3408 15.528 71.7355 15.4C72.1408 15.2613 72.5675 15.192 73.0155 15.192C73.9115 15.192 74.5995 15.448 75.0795 15.96C75.5595 16.4613 75.7995 17.1813 75.7995 18.12V23H73.9115V18.408C73.9115 17.864 73.8048 17.48 73.5915 17.256C73.3888 17.032 73.0315 16.92 72.5195 16.92C72.2208 16.92 71.9382 16.9573 71.6715 17.032C71.4155 17.096 71.1488 17.2027 70.8715 17.352V23H68.9835ZM87.386 23V12.6H91.162C92.2607 12.6 93.098 12.8667 93.674 13.4C94.2607 13.9333 94.554 14.7067 94.554 15.72C94.554 17.2667 93.898 18.2427 92.586 18.648L95.114 23H92.874L90.506 18.84H89.322V23H87.386ZM89.322 17.08H91.002C91.5673 17.08 91.9727 16.9733 92.218 16.76C92.474 16.5467 92.602 16.2 92.602 15.72C92.602 15.24 92.474 14.8933 92.218 14.68C91.9727 14.4667 91.5673 14.36 91.002 14.36H89.322V17.08ZM99.3553 23.192C98.4273 23.192 97.7019 22.9787 97.1793 22.552C96.6673 22.1147 96.4113 21.5067 96.4113 20.728C96.4113 19.9813 96.6566 19.4107 97.1473 19.016C97.6486 18.6213 98.3686 18.424 99.3073 18.424H101.691V18.28C101.691 17.7467 101.563 17.368 101.307 17.144C101.051 16.9093 100.625 16.792 100.027 16.792C99.0886 16.792 98.2139 17.0267 97.4033 17.496L96.8433 15.976C97.8353 15.4533 98.9659 15.192 100.235 15.192C101.387 15.192 102.23 15.432 102.763 15.912C103.307 16.392 103.579 17.144 103.579 18.168V23H102.187L102.027 22.344C101.611 22.6427 101.185 22.8613 100.747 23C100.321 23.128 99.8566 23.192 99.3553 23.192ZM99.7552 21.592C100.481 21.592 101.126 21.432 101.691 21.112V19.848H99.4833C99.0779 19.848 98.7846 19.9173 98.6033 20.056C98.4219 20.184 98.3313 20.3867 98.3313 20.664C98.3313 20.9733 98.4433 21.208 98.6673 21.368C98.9019 21.5173 99.2646 21.592 99.7552 21.592ZM108.509 23V17.08H105.565V15.384H110.397V21.304H113.341V23H108.509ZM109.293 14.008C108.93 14.008 108.626 13.8853 108.381 13.64C108.135 13.3947 108.013 13.0907 108.013 12.728C108.013 12.3653 108.135 12.0613 108.381 11.816C108.626 11.5707 108.93 11.448 109.293 11.448C109.655 11.448 109.959 11.5707 110.205 11.816C110.45 12.0613 110.573 12.3653 110.573 12.728C110.573 13.0907 110.45 13.3947 110.205 13.64C109.959 13.8853 109.655 14.008 109.293 14.008ZM120.35 23.192C118.387 23.192 117.406 22.216 117.406 20.264V13.352H114.462V11.64H119.294V19.976C119.294 20.52 119.395 20.904 119.598 21.128C119.811 21.352 120.174 21.464 120.686 21.464C121.315 21.464 121.923 21.2827 122.51 20.92L122.99 22.52C122.222 22.968 121.342 23.192 120.35 23.192ZM127.951 23.192C126.522 23.192 125.3 22.8773 124.287 22.248L124.975 20.776C125.391 21.0427 125.855 21.2453 126.367 21.384C126.89 21.5227 127.434 21.592 127.999 21.592C129.098 21.592 129.647 21.3307 129.647 20.808C129.647 20.5947 129.588 20.44 129.471 20.344C129.354 20.248 129.14 20.184 128.831 20.152L127.071 19.944C126.26 19.848 125.658 19.624 125.263 19.272C124.879 18.9093 124.687 18.392 124.687 17.72C124.687 16.9093 124.975 16.2853 125.551 15.848C126.127 15.4107 126.964 15.192 128.063 15.192C129.258 15.192 130.351 15.448 131.343 15.96L130.735 17.464C129.956 17.016 129.055 16.792 128.031 16.792C127.06 16.792 126.575 17.048 126.575 17.56C126.575 17.7627 126.634 17.912 126.751 18.008C126.879 18.104 127.092 18.168 127.391 18.2L129.151 18.408C129.962 18.504 130.559 18.7333 130.943 19.096C131.338 19.448 131.535 19.9653 131.535 20.648C131.535 21.4587 131.226 22.088 130.607 22.536C129.999 22.9733 129.114 23.192 127.951 23.192Z" fill="black"/>
<defs>
<filter id="filter0_d_31_2" x="0" y="0" width="153" height="46" filterUnits="userSpaceOnUse" color-interpolation-filters="sRGB">
<feFlood flood-opacity="0" result="BackgroundImageFix"/>
<feColorMatrix in="SourceAlpha" type="matrix" values="0 0 0 0 0 0 0 0 0 0 0 0 0 0 0 0 0 0 127 0" result="hardAlpha"/>
<feOffset dx="4" dy="4"/>
<feGaussianBlur stdDeviation="2"/>
<feComposite in2="hardAlpha" operator="out"/>
<feColorMatrix type="matrix" values="0 0 0 0 0 0 0 0 0 0 0 0 0 0 0 0 0 0 0.25 0"/>
<feBlend mode="normal" in2="BackgroundImageFix" result="effect1_dropShadow_31_2"/>
<feBlend mode="normal" in="SourceGraphic" in2="effect1_dropShadow_31_2" result="shape"/>
</filter>
</defs>
</svg>
