<svg width="70" height="46" viewBox="0 0 70 46" fill="none" xmlns="http://www.w3.org/2000/svg">
<g filter="url(#filter0_d_31_3)">
<rect width="62" height="38" rx="19" fill="#D9D9D9"/>
</g>
<path d="M13.136 23V12.6H16.912C18.0107 12.6 18.848 12.8667 19.424 13.4C20.0107 13.9333 20.304 14.7067 20.304 15.72C20.304 17.2667 19.648 18.2427 18.336 18.648L20.864 23H18.624L16.256 18.84H15.072V23H13.136ZM15.072 17.08H16.752C17.3173 17.08 17.7227 16.9733 17.968 16.76C18.224 16.5467 18.352 16.2 18.352 15.72C18.352 15.24 18.224 14.8933 17.968 14.68C17.7227 14.4667 17.3173 14.36 16.752 14.36H15.072V17.08ZM25.2333 23.192C24.3373 23.192 23.6493 22.9413 23.1693 22.44C22.6893 21.928 22.4493 21.2027 22.4493 20.264V15.384H24.3373V19.976C24.3373 20.52 24.4386 20.904 24.6413 21.128C24.8546 21.352 25.2173 21.464 25.7293 21.464C26.0279 21.464 26.3106 21.4267 26.5773 21.352C26.8439 21.2773 27.1106 21.1707 27.3773 21.032V15.384H29.2653V23H27.8733L27.7133 22.344C27.3186 22.6427 26.9186 22.8613 26.5133 23C26.1079 23.128 25.6813 23.192 25.2333 23.192ZM35.7465 23.192C34.9252 23.192 34.1198 22.9147 33.3305 22.36L33.1705 23H31.7785V11.64H33.6665V15.816C34.0078 15.6027 34.3492 15.448 34.6905 15.352C35.0425 15.2453 35.3945 15.192 35.7465 15.192C36.7492 15.192 37.5438 15.5547 38.1305 16.28C38.7278 16.9947 39.0265 17.9653 39.0265 19.192C39.0265 20.4187 38.7278 21.3947 38.1305 22.12C37.5438 22.8347 36.7492 23.192 35.7465 23.192ZM35.2665 21.464C36.5038 21.464 37.1225 20.7067 37.1225 19.192C37.1225 17.6773 36.5038 16.92 35.2665 16.92C34.7332 16.92 34.1998 17.064 33.6665 17.352V21.032C34.1998 21.32 34.7332 21.464 35.2665 21.464ZM42.0358 26.552C41.2571 26.552 40.5904 26.376 40.0358 26.024L40.6118 24.456C41.0278 24.7013 41.4544 24.824 41.8918 24.824C42.2651 24.824 42.5584 24.7333 42.7718 24.552C42.9958 24.3813 43.1931 24.0667 43.3638 23.608L43.5878 23.016L40.5318 15.384H42.5478L44.5477 20.536L46.5478 15.384H48.4358L44.9638 24.344C44.6544 25.1547 44.2758 25.7253 43.8278 26.056C43.3904 26.3867 42.7931 26.552 42.0358 26.552Z" fill="black"/>
<defs>
<filter id="filter0_d_31_3" x="0" y="0" width="70" height="46" filterUnits="userSpaceOnUse" color-interpolation-filters="sRGB">
<feFlood flood-opacity="0" result="BackgroundImageFix"/>
<feColorMatrix in="SourceAlpha" type="matrix" values="0 0 0 0 0 0 0 0 0 0 0 0 0 0 0 0 0 0 127 0" result="hardAlpha"/>
<feOffset dx="4" dy="4"/>
<feGaussianBlur stdDeviation="2"/>
<feComposite in2="hardAlpha" operator="out"/>
<feColorMatrix type="matrix" values="0 0 0 0 0 0 0 0 0 0 0 0 0 0 0 0 0 0 0.25 0"/>
<feBlend mode="normal" in2="BackgroundImageFix" result="effect1_dropShadow_31_3"/>
<feBlend mode="normal" in="SourceGraphic" in2="effect1_dropShadow_31_3" result="shape"/>
</filter>
</defs>
</svg>
