<svg width="125" height="46" viewBox="0 0 125 46" fill="none" xmlns="http://www.w3.org/2000/svg">
<g filter="url(#filter0_d_31_12)">
<rect width="117" height="38" rx="19" fill="#D9D9D9"/>
</g>
<path d="M16.544 23.192C15.7973 23.192 15.104 23.0907 14.464 22.888C13.824 22.6747 13.2373 22.344 12.704 21.896L13.68 20.344C14.096 20.7067 14.544 20.9733 15.024 21.144C15.5147 21.3147 16.0373 21.4 16.592 21.4C17.8507 21.4 18.48 20.952 18.48 20.056C18.48 19.7147 18.3893 19.4587 18.208 19.288C18.0373 19.1067 17.7387 18.9627 17.312 18.856L15.632 18.44C14.768 18.2267 14.128 17.8907 13.712 17.432C13.3067 16.9627 13.104 16.3387 13.104 15.56C13.104 14.5787 13.4293 13.8107 14.08 13.256C14.7307 12.6907 15.6427 12.408 16.816 12.408C18.0853 12.408 19.2107 12.7547 20.192 13.448L19.28 15.032C18.5973 14.4773 17.776 14.2 16.816 14.2C15.632 14.2 15.04 14.6213 15.04 15.464C15.04 15.7627 15.1253 16.0027 15.296 16.184C15.4773 16.3547 15.7813 16.4933 16.208 16.6L17.888 17.016C18.752 17.2293 19.3867 17.5707 19.792 18.04C20.208 18.4987 20.416 19.1387 20.416 19.96C20.416 20.9627 20.0747 21.752 19.392 22.328C18.72 22.904 17.7707 23.192 16.544 23.192ZM28.1773 26.552C27.1639 26.552 26.4119 26.2907 25.9213 25.768C25.4306 25.2453 25.1853 24.4347 25.1853 23.336V23.144C24.0973 22.984 23.2759 22.456 22.7213 21.56C22.1666 20.6533 21.8893 19.4 21.8893 17.8C21.8893 16.0187 22.2306 14.6747 22.9133 13.768C23.5959 12.8613 24.5986 12.408 25.9213 12.408C27.2546 12.408 28.2573 12.8613 28.9293 13.768C29.6119 14.6747 29.9533 16.0187 29.9533 17.8C29.9533 20.7973 29.0093 22.5467 27.1213 23.048V23.224C27.1213 23.7787 27.2173 24.1787 27.4093 24.424C27.6013 24.6693 27.9159 24.792 28.3533 24.792C28.8653 24.792 29.3666 24.6427 29.8573 24.344L30.4493 25.928C29.7666 26.344 29.0093 26.552 28.1773 26.552ZM25.9213 21.4C27.3079 21.4 28.0013 20.2 28.0013 17.8C28.0013 15.4 27.3079 14.2 25.9213 14.2C24.5346 14.2 23.8413 15.4 23.8413 17.8C23.8413 20.2 24.5346 21.4 25.9213 21.4ZM32.1305 23V12.6H34.0505V21.24H38.9625V23H32.1305ZM50.341 23V12.6H54.069C55.189 12.6 56.0157 12.824 56.549 13.272C57.093 13.72 57.365 14.3867 57.365 15.272C57.365 15.848 57.2477 16.3227 57.013 16.696C56.7783 17.0693 56.4103 17.3467 55.909 17.528V17.56C57.0717 17.9013 57.653 18.744 57.653 20.088C57.653 22.0293 56.5277 23 54.277 23H50.341ZM52.277 16.776H53.717C54.3463 16.776 54.789 16.68 55.045 16.488C55.301 16.2853 55.429 15.9653 55.429 15.528C55.429 15.112 55.317 14.8133 55.093 14.632C54.869 14.4507 54.4797 14.36 53.925 14.36H52.277V16.776ZM52.277 21.24H54.117C54.6717 21.24 55.0717 21.1387 55.317 20.936C55.573 20.7227 55.701 20.3867 55.701 19.928C55.701 19.4373 55.557 19.0853 55.269 18.872C54.9917 18.648 54.5383 18.536 53.909 18.536H52.277V21.24ZM62.2303 23.192C61.3023 23.192 60.5769 22.9787 60.0543 22.552C59.5423 22.1147 59.2863 21.5067 59.2863 20.728C59.2863 19.9813 59.5316 19.4107 60.0223 19.016C60.5236 18.6213 61.2436 18.424 62.1823 18.424H64.5663V18.28C64.5663 17.7467 64.4383 17.368 64.1823 17.144C63.9263 16.9093 63.4996 16.792 62.9023 16.792C61.9636 16.792 61.0889 17.0267 60.2783 17.496L59.7183 15.976C60.7103 15.4533 61.8409 15.192 63.1102 15.192C64.2623 15.192 65.1049 15.432 65.6383 15.912C66.1823 16.392 66.4543 17.144 66.4543 18.168V23H65.0623L64.9023 22.344C64.4863 22.6427 64.0596 22.8613 63.6223 23C63.1956 23.128 62.7316 23.192 62.2303 23.192ZM62.6302 21.592C63.3556 21.592 64.0009 21.432 64.5663 21.112V19.848H62.3583C61.9529 19.848 61.6596 19.9173 61.4783 20.056C61.2969 20.184 61.2063 20.3867 61.2063 20.664C61.2063 20.9733 61.3183 21.208 61.5423 21.368C61.7769 21.5173 62.1396 21.592 62.6302 21.592ZM72.2635 23.192C70.8342 23.192 69.6128 22.8773 68.5995 22.248L69.2875 20.776C69.7035 21.0427 70.1675 21.2453 70.6795 21.384C71.2022 21.5227 71.7462 21.592 72.3115 21.592C73.4102 21.592 73.9595 21.3307 73.9595 20.808C73.9595 20.5947 73.9008 20.44 73.7835 20.344C73.6662 20.248 73.4528 20.184 73.1435 20.152L71.3835 19.944C70.5728 19.848 69.9702 19.624 69.5755 19.272C69.1915 18.9093 68.9995 18.392 68.9995 17.72C68.9995 16.9093 69.2875 16.2853 69.8635 15.848C70.4395 15.4107 71.2768 15.192 72.3755 15.192C73.5702 15.192 74.6635 15.448 75.6555 15.96L75.0475 17.464C74.2688 17.016 73.3675 16.792 72.3435 16.792C71.3728 16.792 70.8875 17.048 70.8875 17.56C70.8875 17.7627 70.9462 17.912 71.0635 18.008C71.1915 18.104 71.4048 18.168 71.7035 18.2L73.4635 18.408C74.2742 18.504 74.8715 18.7333 75.2555 19.096C75.6502 19.448 75.8475 19.9653 75.8475 20.648C75.8475 21.4587 75.5382 22.088 74.9195 22.536C74.3115 22.9733 73.4262 23.192 72.2635 23.192ZM80.6648 23V17.08H77.7208V15.384H82.5528V21.304H85.4968V23H80.6648ZM81.4488 14.008C81.0861 14.008 80.7821 13.8853 80.5368 13.64C80.2914 13.3947 80.1688 13.0907 80.1688 12.728C80.1688 12.3653 80.2914 12.0613 80.5368 11.816C80.7821 11.5707 81.0861 11.448 81.4488 11.448C81.8114 11.448 82.1154 11.5707 82.3608 11.816C82.6061 12.0613 82.7288 12.3653 82.7288 12.728C82.7288 13.0907 82.6061 13.3947 82.3608 13.64C82.1154 13.8853 81.8114 14.008 81.4488 14.008ZM91.53 23.192C90.698 23.192 89.9727 23.032 89.354 22.712C88.746 22.3813 88.2713 21.9173 87.93 21.32C87.5993 20.7227 87.434 20.0133 87.434 19.192C87.434 18.3707 87.5993 17.6613 87.93 17.064C88.2713 16.4667 88.746 16.008 89.354 15.688C89.9727 15.3573 90.698 15.192 91.53 15.192C92.522 15.192 93.4287 15.4533 94.25 15.976L93.594 17.528C93.1993 17.304 92.8473 17.1493 92.538 17.064C92.2393 16.968 91.9193 16.92 91.578 16.92C90.0953 16.92 89.354 17.6773 89.354 19.192C89.354 20.7067 90.0953 21.464 91.578 21.464C91.9513 21.464 92.3033 21.4107 92.634 21.304C92.9647 21.1973 93.3487 21.0107 93.786 20.744L94.49 22.248C93.6047 22.8773 92.618 23.192 91.53 23.192ZM100.107 23.192C98.6779 23.192 97.4566 22.8773 96.4433 22.248L97.1313 20.776C97.5473 21.0427 98.0113 21.2453 98.5233 21.384C99.0459 21.5227 99.5899 21.592 100.155 21.592C101.254 21.592 101.803 21.3307 101.803 20.808C101.803 20.5947 101.745 20.44 101.627 20.344C101.51 20.248 101.297 20.184 100.987 20.152L99.2273 19.944C98.4166 19.848 97.8139 19.624 97.4193 19.272C97.0353 18.9093 96.8433 18.392 96.8433 17.72C96.8433 16.9093 97.1313 16.2853 97.7073 15.848C98.2833 15.4107 99.1206 15.192 100.219 15.192C101.414 15.192 102.507 15.448 103.499 15.96L102.891 17.464C102.113 17.016 101.211 16.792 100.187 16.792C99.2166 16.792 98.7313 17.048 98.7313 17.56C98.7313 17.7627 98.7899 17.912 98.9073 18.008C99.0353 18.104 99.2486 18.168 99.5473 18.2L101.307 18.408C102.118 18.504 102.715 18.7333 103.099 19.096C103.494 19.448 103.691 19.9653 103.691 20.648C103.691 21.4587 103.382 22.088 102.763 22.536C102.155 22.9733 101.27 23.192 100.107 23.192Z" fill="black"/>
<defs>
<filter id="filter0_d_31_12" x="0" y="0" width="125" height="46" filterUnits="userSpaceOnUse" color-interpolation-filters="sRGB">
<feFlood flood-opacity="0" result="BackgroundImageFix"/>
<feColorMatrix in="SourceAlpha" type="matrix" values="0 0 0 0 0 0 0 0 0 0 0 0 0 0 0 0 0 0 127 0" result="hardAlpha"/>
<feOffset dx="4" dy="4"/>
<feGaussianBlur stdDeviation="2"/>
<feComposite in2="hardAlpha" operator="out"/>
<feColorMatrix type="matrix" values="0 0 0 0 0 0 0 0 0 0 0 0 0 0 0 0 0 0 0.25 0"/>
<feBlend mode="normal" in2="BackgroundImageFix" result="effect1_dropShadow_31_12"/>
<feBlend mode="normal" in="SourceGraphic" in2="effect1_dropShadow_31_12" result="shape"/>
</filter>
</defs>
</svg>
