<svg width="108" height="46" viewBox="0 0 108 46" fill="none" xmlns="http://www.w3.org/2000/svg">
<g filter="url(#filter0_d_31_7)">
<rect width="100" height="38" rx="19" fill="#D9D9D9"/>
</g>
<path d="M15.68 23V14.376H12.48V12.6H20.8V14.376H17.6V23H15.68ZM26.3533 23.192C25.0306 23.192 23.9906 22.8347 23.2333 22.12C22.4759 21.4053 22.0973 20.4293 22.0973 19.192C22.0973 18.392 22.2626 17.6933 22.5933 17.096C22.9239 16.4987 23.3826 16.0347 23.9693 15.704C24.5559 15.3627 25.2386 15.192 26.0173 15.192C26.7746 15.192 27.4306 15.352 27.9853 15.672C28.5506 15.9813 28.9879 16.4187 29.2973 16.984C29.6066 17.5493 29.7613 18.2107 29.7613 18.968C29.7613 19.1067 29.7559 19.2507 29.7453 19.4C29.7346 19.5387 29.7133 19.688 29.6813 19.848H24.0173C24.2199 21.0107 25.0039 21.592 26.3693 21.592C27.1693 21.592 27.9533 21.3467 28.7213 20.856L29.4253 22.248C28.9346 22.5787 28.4439 22.8187 27.9533 22.968C27.4626 23.1173 26.9293 23.192 26.3533 23.192ZM24.0333 18.424H27.9053C27.7239 17.336 27.0893 16.792 26.0013 16.792C24.9239 16.792 24.2679 17.336 24.0333 18.424ZM32.3065 23V15.384H33.7785L33.9705 16.44C34.3652 16.0027 34.7918 15.688 35.2505 15.496C35.7092 15.2933 36.2265 15.192 36.8025 15.192C37.5812 15.192 38.2532 15.3947 38.8185 15.8L38.1145 17.432C37.8798 17.2613 37.6398 17.1387 37.3945 17.064C37.1598 16.9787 36.9038 16.936 36.6265 16.936C35.7198 16.936 34.9092 17.3733 34.1945 18.248V23H32.3065ZM40.5478 23V15.384H41.6678L41.8118 15.96C42.3558 15.448 42.9424 15.192 43.5718 15.192C44.2331 15.192 44.7184 15.448 45.0278 15.96C45.5398 15.448 46.1051 15.192 46.7238 15.192C47.2678 15.192 47.6944 15.368 48.0038 15.72C48.3238 16.0613 48.4838 16.5307 48.4838 17.128V23H46.8518V17.352C46.8518 16.968 46.6438 16.776 46.2278 16.776C45.8971 16.776 45.5984 16.8933 45.3318 17.128V23H43.6998V17.352C43.6998 16.968 43.4918 16.776 43.0758 16.776C42.7558 16.776 42.4571 16.888 42.1798 17.112V23H40.5478ZM52.821 23V17.08H49.877V15.384H54.709V21.304H57.653V23H52.821ZM53.605 14.008C53.2423 14.008 52.9383 13.8853 52.693 13.64C52.4477 13.3947 52.325 13.0907 52.325 12.728C52.325 12.3653 52.4477 12.0613 52.693 11.816C52.9383 11.5707 53.2423 11.448 53.605 11.448C53.9677 11.448 54.2717 11.5707 54.517 11.816C54.7623 12.0613 54.885 12.3653 54.885 12.728C54.885 13.0907 54.7623 13.3947 54.517 13.64C54.2717 13.8853 53.9677 14.008 53.605 14.008ZM59.7023 23V15.384H61.0943L61.2543 16.04C61.6596 15.7413 62.0596 15.528 62.4543 15.4C62.8596 15.2613 63.2863 15.192 63.7343 15.192C64.6303 15.192 65.3183 15.448 65.7983 15.96C66.2783 16.4613 66.5183 17.1813 66.5183 18.12V23H64.6303V18.408C64.6303 17.864 64.5236 17.48 64.3103 17.256C64.1076 17.032 63.7503 16.92 63.2383 16.92C62.9396 16.92 62.6569 16.9573 62.3903 17.032C62.1343 17.096 61.8676 17.2027 61.5903 17.352V23H59.7023ZM71.5115 23.192C70.5835 23.192 69.8582 22.9787 69.3355 22.552C68.8235 22.1147 68.5675 21.5067 68.5675 20.728C68.5675 19.9813 68.8128 19.4107 69.3035 19.016C69.8048 18.6213 70.5248 18.424 71.4635 18.424H73.8475V18.28C73.8475 17.7467 73.7195 17.368 73.4635 17.144C73.2075 16.9093 72.7808 16.792 72.1835 16.792C71.2448 16.792 70.3702 17.0267 69.5595 17.496L68.9995 15.976C69.9915 15.4533 71.1222 15.192 72.3915 15.192C73.5435 15.192 74.3862 15.432 74.9195 15.912C75.4635 16.392 75.7355 17.144 75.7355 18.168V23H74.3435L74.1835 22.344C73.7675 22.6427 73.3408 22.8613 72.9035 23C72.4768 23.128 72.0128 23.192 71.5115 23.192ZM71.9115 21.592C72.6368 21.592 73.2822 21.432 73.8475 21.112V19.848H71.6395C71.2342 19.848 70.9408 19.9173 70.7595 20.056C70.5782 20.184 70.4875 20.3867 70.4875 20.664C70.4875 20.9733 70.5995 21.208 70.8235 21.368C71.0582 21.5173 71.4208 21.592 71.9115 21.592ZM83.2248 23.192C81.2621 23.192 80.2808 22.216 80.2808 20.264V13.352H77.3368V11.64H82.1688V19.976C82.1688 20.52 82.2701 20.904 82.4728 21.128C82.6861 21.352 83.0488 21.464 83.5608 21.464C84.1901 21.464 84.7981 21.2827 85.3848 20.92L85.8648 22.52C85.0968 22.968 84.2168 23.192 83.2248 23.192Z" fill="black"/>
<defs>
<filter id="filter0_d_31_7" x="0" y="0" width="108" height="46" filterUnits="userSpaceOnUse" color-interpolation-filters="sRGB">
<feFlood flood-opacity="0" result="BackgroundImageFix"/>
<feColorMatrix in="SourceAlpha" type="matrix" values="0 0 0 0 0 0 0 0 0 0 0 0 0 0 0 0 0 0 127 0" result="hardAlpha"/>
<feOffset dx="4" dy="4"/>
<feGaussianBlur stdDeviation="2"/>
<feComposite in2="hardAlpha" operator="out"/>
<feColorMatrix type="matrix" values="0 0 0 0 0 0 0 0 0 0 0 0 0 0 0 0 0 0 0.25 0"/>
<feBlend mode="normal" in2="BackgroundImageFix" result="effect1_dropShadow_31_7"/>
<feBlend mode="normal" in="SourceGraphic" in2="effect1_dropShadow_31_7" result="shape"/>
</filter>
</defs>
</svg>
